<svg xmlns="http://www.w3.org/2000/svg" width="300" zoomAndPan="magnify" viewBox="-40 -40 304.87999 292.249992" height="283" preserveAspectRatio="xMidYMid meet" version="1.0">
    <rect x="-40" y="-40" width="310" height="300" fill="#FEF9F5"/>
    <defs>
        <clipPath id="28179b184e">
            <path d="M 0.335938 0 L 224.425781 0 L 224.425781 211.503906 L 0.335938 211.503906 Z M 0.335938 0 " clip-rule="nonzero"/>
        </clipPath>
    </defs>
    <g clip-path="url(#28179b184e)">
        <path fill="#897c73" d="M 102.34375 1.191406 C 80.371094 4.636719 61.644531 13.8125 46.140625 28.722656 C 25.925781 48.164062 15.929688 71.566406 15.726562 99.929688 C 15.617188 115.046875 16.5625 119.699219 19.417969 118.167969 C 20.507812 117.585938 20.542969 117.273438 20.082031 112.117188 C 19.332031 103.714844 19.609375 91.039062 20.667969 85.011719 C 23.308594 70.042969 28.851562 56.570312 37.230469 44.78125 C 41.199219 39.199219 52.527344 27.707031 58.164062 23.542969 C 70.53125 14.40625 83.4375 8.84375 99.964844 5.535156 C 105.320312 4.460938 108.125 4.265625 118.386719 4.253906 C 131.625 4.238281 134.648438 4.613281 145.804688 7.664062 C 157.417969 10.839844 170.015625 17.03125 179.917969 24.425781 C 199.703125 39.214844 214.367188 62.207031 219.199219 86.03125 C 221.390625 96.832031 221.230469 114.140625 218.828125 125.988281 C 217.617188 131.945312 213.554688 143.972656 210.800781 149.746094 C 201.402344 169.445312 185.957031 186.007812 167.921875 195.71875 C 156.617188 201.804688 137.605469 207.160156 127.304688 207.160156 C 124.097656 207.160156 124.019531 207.121094 122.964844 205.050781 C 120.476562 200.160156 119.304688 194.757812 119.265625 188.023438 C 119.230469 181.863281 120.519531 174.011719 121.792969 172.613281 C 122.042969 172.339844 124.070312 172.875 126.363281 173.820312 C 131.945312 176.121094 137.59375 177.015625 141.707031 176.257812 C 150.933594 174.550781 154.085938 170.546875 166.878906 144.3125 C 170.875 136.117188 174.75 127.589844 175.496094 125.363281 C 177.148438 120.398438 178.050781 114.113281 178.050781 107.535156 C 178.050781 104.066406 178.265625 102.476562 178.757812 102.296875 C 179.320312 102.09375 179.320312 101.890625 178.757812 101.292969 C 177.542969 100.007812 177.980469 95.132812 180.039062 86.972656 C 184.5 69.289062 183.765625 58.523438 177.464844 49.085938 C 174.347656 44.417969 168.484375 39.082031 168.484375 40.914062 C 168.484375 41.117188 169.472656 42.574219 170.679688 44.152344 C 173.933594 48.394531 176.757812 53.875 177.808594 57.964844 C 178.796875 61.820312 179.089844 71.332031 178.375 76.355469 L 177.964844 79.242188 L 173.832031 79.507812 C 166.675781 79.964844 161.1875 83.679688 158.558594 89.839844 C 156.933594 93.644531 157.546875 102.707031 160.324219 115.972656 C 161.671875 122.414062 161.058594 124.757812 157.035156 128.582031 L 154.128906 131.339844 L 156.542969 131.023438 C 159.722656 130.609375 162.710938 128.261719 164.117188 125.078125 C 165.433594 122.101562 165.289062 118.683594 163.511719 110.90625 C 162.910156 108.273438 162.25 105.15625 162.042969 103.980469 L 161.667969 101.839844 L 163.527344 102.824219 C 164.71875 103.457031 166.902344 103.863281 169.609375 103.953125 L 173.832031 104.089844 L 174.011719 107.359375 C 174.332031 113.171875 173.117188 120.738281 170.976562 126.292969 C 169.019531 131.371094 157.449219 154.417969 153.265625 161.566406 C 150.640625 166.0625 147.496094 169.769531 145.40625 170.851562 C 138.464844 174.441406 129.578125 172.378906 114.375 163.644531 C 100.644531 155.761719 89.816406 146.921875 83.5 138.441406 C 78.414062 131.609375 73.90625 121.996094 72.503906 114.988281 C 72.195312 113.445312 71.890625 113.15625 70.558594 113.15625 C 68.367188 113.15625 63.9375 110.035156 61.460938 106.742188 C 55.453125 98.765625 56.871094 89.449219 65.351562 81.113281 C 72.136719 74.449219 79.257812 71.59375 105.441406 65.035156 C 134.171875 57.839844 149.835938 51.074219 157.816406 42.417969 C 160.480469 39.53125 163.589844 33.320312 163.320312 31.425781 C 163.160156 30.324219 162.871094 30.558594 161.238281 33.105469 C 160.195312 34.738281 157.296875 37.96875 154.796875 40.292969 C 151.046875 43.777344 148.914062 45.183594 142.621094 48.324219 C 131.503906 53.875 124.914062 56.03125 97.730469 63.019531 C 77.027344 68.34375 70.320312 71.082031 63.914062 76.839844 C 59.105469 81.164062 54.78125 88.996094 54.78125 93.375 C 54.78125 95.839844 53.644531 93.917969 52.480469 89.480469 C 49.714844 78.941406 52.375 68.40625 59.765625 60.636719 C 66.421875 53.640625 73.742188 49.613281 92.210938 42.78125 C 112.074219 35.433594 121.679688 30.246094 125.695312 24.707031 C 128.109375 21.375 127.796875 20.953125 124.84375 23.550781 C 119.269531 28.460938 112.535156 31.589844 91.929688 38.847656 C 66.042969 47.96875 55.273438 55.554688 49.574219 68.6875 C 47.8125 72.75 47.742188 73.1875 47.761719 80.226562 C 47.785156 88.144531 48.402344 91.078125 51.5 97.953125 C 55.5 106.839844 61.167969 113.75 66.332031 116.035156 C 69.121094 117.269531 69.121094 117.269531 69.972656 124.402344 C 71.191406 134.640625 70.425781 152.585938 68.316406 163.039062 C 67.191406 168.632812 64.332031 176.183594 61.863281 180.074219 L 60.304688 182.535156 L 56.933594 179.226562 C 50.980469 173.382812 43.273438 161.90625 43.355469 159.015625 C 43.460938 155.3125 45.1875 151.054688 48.28125 146.882812 C 49.980469 144.585938 51.90625 141.191406 52.554688 139.332031 C 54.085938 134.960938 54.542969 128.03125 53.691406 122.09375 C 52.738281 115.449219 52.546875 114.847656 51.386719 114.847656 C 50.085938 114.847656 43.929688 120.976562 42.152344 124.042969 C 38.59375 130.183594 38.191406 137.804688 40.980469 146.113281 C 42.246094 149.890625 42.335938 150.652344 41.75 152.621094 C 41.382812 153.84375 40.902344 154.648438 40.683594 154.40625 C 40.03125 153.6875 37.980469 146.960938 37.03125 142.429688 C 34.691406 131.242188 33.957031 121.113281 35.113281 115.972656 C 35.425781 114.578125 36.824219 111.160156 38.21875 108.371094 C 41.957031 100.890625 42.457031 96.132812 40.644531 85.292969 C 39.761719 80.042969 39.035156 77.695312 38.292969 77.703125 C 37.34375 77.710938 31.8125 85.257812 30.207031 88.730469 C 27.316406 94.988281 27.214844 100.453125 29.851562 108.089844 C 31.183594 111.949219 31.316406 113.160156 31.398438 122.164062 C 31.484375 131.183594 31.867188 134.714844 33.738281 143.554688 C 33.925781 144.425781 33.425781 143.890625 32.421875 142.144531 C 26.902344 132.523438 20.867188 126.191406 14.167969 123.011719 C 9.433594 120.761719 1.59375 118.832031 0.726562 119.703125 C -0.0976562 120.523438 3.851562 132.5 6.074219 135.929688 C 9.191406 140.738281 12.277344 142.992188 19.035156 145.398438 C 21.203125 146.167969 24.496094 147.109375 26.351562 147.488281 C 30.054688 148.242188 35.078125 150.75 35.078125 151.84375 C 35.078125 152.222656 36.851562 156.023438 39.019531 160.289062 C 47.070312 176.105469 56.261719 186.5625 70.597656 196.203125 C 81.554688 203.570312 94.894531 208.605469 108.535156 210.523438 C 113.75 211.257812 128.4375 211.25 133.964844 210.511719 C 161.007812 206.902344 183.707031 194.558594 199.59375 174.824219 C 210.792969 160.910156 217.738281 147.25 221.703125 131.335938 C 224.117188 121.640625 224.769531 116.007812 224.769531 104.78125 C 224.773438 88.042969 221.582031 74.105469 214.507812 59.964844 C 203.699219 38.359375 186.257812 21.039062 164.914062 10.734375 C 145.335938 1.277344 123.25 -2.089844 102.34375 1.191406 M 115.570312 72.902344 C 111.007812 73.816406 103.640625 76.613281 103.328125 77.554688 C 103.015625 78.496094 104.988281 78.457031 109.929688 77.417969 C 125.109375 74.222656 135.605469 75.796875 141.8125 82.195312 C 144.226562 84.683594 146.148438 85.085938 147.105469 83.304688 C 148.402344 80.875 145.882812 78.058594 140.058594 75.421875 C 133.003906 72.226562 123.722656 71.273438 115.570312 72.902344 M 170.484375 83.601562 C 164.488281 85.738281 160.695312 91.507812 161.960938 96.558594 C 162.503906 98.71875 166.402344 100.316406 170.597656 100.097656 L 173.832031 99.929688 L 174.199219 96.222656 C 174.398438 94.183594 175.097656 90.621094 175.746094 88.304688 C 176.394531 85.992188 176.925781 83.796875 176.925781 83.429688 C 176.925781 82.519531 173.25 82.617188 170.484375 83.601562 M 33.847656 88.242188 C 32.074219 91.847656 31.984375 92.335938 32 98.230469 C 32.015625 104.367188 33.015625 109.824219 33.953125 108.867188 C 34.765625 108.035156 36.808594 102.402344 37.386719 99.394531 C 37.980469 96.332031 37.007812 84.449219 36.167969 84.449219 C 35.917969 84.449219 34.871094 86.15625 33.847656 88.242188 M 109.941406 90.363281 C 109.941406 91.730469 117.164062 96.644531 121.042969 97.917969 C 125.886719 99.507812 130.894531 99.46875 134.167969 97.820312 C 135.550781 97.121094 136.75 96.164062 136.835938 95.691406 C 136.972656 94.957031 136.160156 94.863281 131.140625 95.050781 C 124.390625 95.300781 121.132812 94.566406 115.320312 91.480469 C 111.28125 89.339844 109.941406 89.058594 109.941406 90.363281 M 47.546875 122.507812 C 46.550781 123.710938 45.046875 126.089844 44.207031 127.792969 C 42.785156 130.667969 42.675781 131.398438 42.675781 138.019531 C 42.675781 141.941406 42.882812 145.355469 43.136719 145.609375 C 44.058594 146.527344 48.148438 140.375 49.382812 136.21875 C 50.3125 133.101562 50.570312 123.394531 49.78125 121.382812 C 49.40625 120.433594 49.164062 120.558594 47.546875 122.507812 M 147.082031 124.066406 C 144.371094 124.945312 144.191406 126.492188 146.746094 126.972656 C 150.726562 127.71875 154.03125 125.179688 150.625 123.988281 C 149.535156 123.609375 148.414062 123.632812 147.082031 124.066406 M 6.03125 126.492188 C 8.410156 133.207031 12.074219 138.203125 16.148438 140.285156 C 18.523438 141.496094 29.535156 144.78125 29.925781 144.390625 C 30.238281 144.078125 27.933594 140.402344 25.0625 136.625 C 21.160156 131.492188 14.019531 126.492188 8.902344 125.3125 C 7.976562 125.101562 6.777344 124.792969 6.242188 124.636719 C 5.351562 124.371094 5.332031 124.523438 6.03125 126.492188 M 74.464844 139.921875 C 74.441406 149.613281 73.410156 159.359375 71.652344 166.464844 C 70.199219 172.335938 66.75 180.027344 64.332031 182.777344 C 62.230469 185.175781 62.117188 185.003906 69.429688 190.511719 C 75.695312 195.230469 86.347656 200.710938 94.183594 203.242188 C 100.621094 205.324219 110.894531 207.160156 116.109375 207.160156 L 119.910156 207.160156 L 118.585938 204.394531 C 117.859375 202.871094 116.726562 199.386719 116.074219 196.652344 C 114.515625 190.148438 114.792969 180.238281 116.699219 174.242188 C 117.726562 171.015625 117.8125 170.238281 117.183594 169.878906 C 95.273438 157.457031 85.167969 148.839844 77.035156 135.644531 L 74.480469 131.503906 Z M 142.308594 137.78125 C 137.664062 139.414062 133.089844 139.925781 129.839844 139.171875 C 125.367188 138.136719 125.011719 140.667969 129.394531 142.339844 C 132.515625 143.53125 152.628906 143.949219 155.773438 142.890625 C 156.988281 142.480469 158.078125 141.863281 158.191406 141.515625 C 158.441406 140.746094 155.851562 137.570312 154.292969 136.734375 C 153.375 136.242188 152.894531 136.402344 151.644531 137.597656 L 150.113281 139.0625 L 148.789062 137.648438 C 147.234375 135.996094 147.390625 135.992188 142.308594 137.78125 M 136.160156 149.113281 C 135.695312 149.867188 138.417969 152.519531 140.601562 153.433594 C 144.324219 154.988281 149.335938 154.085938 151.910156 151.398438 C 153.871094 149.351562 153.3125 148.429688 150.757812 149.496094 C 148.238281 150.550781 142.808594 150.535156 139.777344 149.464844 C 137 148.484375 136.574219 148.445312 136.160156 149.113281 " fill-opacity="1" fill-rule="evenodd"/>
    </g>
</svg>